<svg id="line" xmlns="http://www.w3.org/2000/svg" viewBox="0 0 64 64"><defs><style>.cls-1{fill:#231f20;}</style></defs><path class="cls-1" d="M54.31543,37.90039a1.0006,1.0006,0,0,0-1.252.6582c-7.33256,22.64323-39.86816,19.46172-42.95089-3.92107l1.87179,1.92986a1,1,0,1,0,1.4355-1.39258L9.665,31.30371a1.00026,1.00026,0,0,0-.62187-.29155,1.10509,1.10509,0,0,0-.77755.25639L4.31836,34.94336a1,1,0,0,0,1.36333,1.46285l2.3722-2.2087C10.76721,60.18487,46.85238,64.1742,54.97367,39.152A1.00012,1.00012,0,0,0,54.31543,37.90039Z"/><path class="cls-1" d="M59.73145,27.65625a.99987.99987,0,0,0-1.41309-.0498l-2.36774,2.20446C53.27,3.9971,17.577-.192,9.13765,24.512a1.0001,1.0001,0,0,0,1.90047.62267C18.66043,2.77262,50.85657,6.14843,53.89375,29.38128l-1.87813-1.93694a1.00018,1.00018,0,0,0-1.4355,1.39261L54.335,32.709a1.01743,1.01743,0,0,0,1.39942.03516l3.94726-3.6748A.99906.99906,0,0,0,59.73145,27.65625Z"/><path class="cls-1" d="M20.95312,43.85254a.99983.99983,0,0,0,.60943,1.90427,26.33787,26.33787,0,0,0,8.859-4.83878,14.21,14.21,0,0,0,2.63415.247,10.31513,10.31513,0,0,0,6.96973-2.42676c3.374-3.00781,4.458-8.52832,3.22168-16.41016a.99379.99379,0,0,0-1.11133-.83691,19.76572,19.76572,0,0,0-7.62451,2.89172,27.49845,27.49845,0,0,0-9.12646-6.09875.99473.99473,0,0,0-1.3086.4707c-.06262.1272-6.035,12.6568,4.61695,19.28839.066.4776.15777.96656.26037,1.46033A24.1913,24.1913,0,0,1,20.95312,43.85254ZM25.4873,20.53613a24.66915,24.66915,0,0,1,7.43073,5.056,12.601,12.601,0,0,0-4.39548,9.90022C22.3316,30.63074,24.4856,23.12738,25.4873,20.53613Zm6.91016,8.57813c2.54492-3.65332,7.05371-5.01856,9.02149-5.457,1.33049,9.2938-1.1301,15.9107-9.06406,15.47783a24.314,24.314,0,0,0,4.97616-7.10869,1,1,0,0,0-1.85156-.75586,23.22464,23.22464,0,0,1-4.78,6.64831A11.91781,11.91781,0,0,1,32.39746,29.11426Z"/></svg>