<?xml version="1.0" encoding="UTF-8"?>
<svg id="Layer_1" data-name="Layer 1" xmlns="http://www.w3.org/2000/svg" viewBox="0 0 278.35 53.06">
  <defs>
    <style>
      .cls-1 {
        fill: #231f20;
        stroke-width: 0px;
      }
    </style>
  </defs>
  <path class="cls-1" d="M39.85,4.21c2.09,1.03,3.74,2.48,4.97,4.36s1.84,3.96,1.84,6.26c0,6.1-2.76,9.94-8.28,11.52v.29c6.29,1.44,9.43,5.57,9.43,12.38,0,2.59-.64,4.88-1.91,6.88-1.27,1.99-3.01,3.54-5.22,4.64-2.21,1.1-4.63,1.66-7.27,1.66H0V2.66h32.98c2.5,0,4.79.52,6.88,1.55ZM15.91,21.96h10.94c1.06,0,1.93-.37,2.63-1.12.7-.74,1.04-1.67,1.04-2.77v-.72c0-1.06-.36-1.96-1.08-2.7-.72-.74-1.58-1.12-2.59-1.12h-10.94v8.42ZM15.91,40.68h12.1c1.06,0,1.93-.37,2.63-1.12.7-.74,1.04-1.67,1.04-2.77v-.72c0-1.1-.35-2.03-1.04-2.77-.7-.74-1.57-1.12-2.63-1.12h-12.1v8.5Z"/>
  <path class="cls-1" d="M87.98,16.24c3.65,1.94,5.47,5.1,5.47,9.47v14.83c0,.82.19,1.49.58,2.02.38.53.96.79,1.73.79h2.59v8.28c-.14.1-.52.25-1.12.47-.6.22-1.45.43-2.56.65-1.1.22-2.38.32-3.82.32-2.78,0-5.08-.42-6.88-1.26-1.8-.84-3.04-2-3.71-3.49-1.82,1.44-3.86,2.59-6.12,3.46-2.26.86-4.9,1.3-7.92,1.3-8.93,0-13.39-3.55-13.39-10.66,0-3.7,1-6.52,2.99-8.46,1.99-1.94,4.86-3.28,8.6-4,3.74-.72,8.64-1.08,14.69-1.08v-1.87c0-1.49-.52-2.62-1.55-3.38-1.03-.77-2.36-1.15-4-1.15-1.49,0-2.77.26-3.85.79-1.08.53-1.62,1.37-1.62,2.52v.29h-14.11c-.05-.24-.07-.58-.07-1.01,0-3.6,1.72-6.46,5.15-8.57,3.43-2.11,8.34-3.17,14.72-3.17,5.81,0,10.54.97,14.18,2.92ZM70.09,36.97c-1.94.89-2.92,2.08-2.92,3.56,0,2.4,1.63,3.6,4.9,3.6,1.87,0,3.52-.5,4.93-1.51,1.42-1.01,2.12-2.26,2.12-3.74v-3.24c-4.08,0-7.09.44-9.04,1.33Z"/>
  <path class="cls-1" d="M134.03,16.31c3.53,1.99,5.29,5.08,5.29,9.25h-13.32c0-1.39-.62-2.38-1.87-2.95-.86-.48-1.94-.72-3.24-.72-3.46,0-5.18.82-5.18,2.45,0,.91.6,1.56,1.8,1.94,1.2.38,3.17.79,5.9,1.22,3.36.48,6.17,1.04,8.42,1.69,2.25.65,4.22,1.8,5.9,3.46,1.68,1.66,2.52,3.97,2.52,6.95,0,4.85-1.81,8.3-5.44,10.37-3.62,2.06-8.36,3.1-14.22,3.1-3.36,0-6.53-.47-9.5-1.4-2.98-.94-5.4-2.39-7.27-4.36-1.87-1.97-2.81-4.46-2.81-7.49h13.32v.29c.05,1.63.73,2.77,2.05,3.42,1.32.65,2.72.97,4.21.97,3.98,0,5.98-.94,5.98-2.81,0-.96-.62-1.66-1.87-2.09-1.25-.43-3.29-.89-6.12-1.37-3.41-.58-6.2-1.2-8.39-1.87-2.18-.67-4.09-1.81-5.72-3.42-1.63-1.61-2.45-3.85-2.45-6.73,0-4.66,1.76-7.97,5.29-9.94,3.53-1.97,8.12-2.95,13.79-2.95,5.09,0,9.4,1,12.92,2.99Z"/>
  <path class="cls-1" d="M147.53,9.72V0h14.33v9.72h-14.33ZM147.53,52.2V14.18h14.33v38.02h-14.33Z"/>
  <path class="cls-1" d="M205.81,17.32c3.86,2.66,5.8,6.73,5.8,12.2h-13.9c0-4.32-2.35-6.48-7.06-6.48s-7.06,2.71-7.06,8.14v4.1c0,5.38,2.45,8.06,7.34,8.06s7.34-2.21,7.34-6.62h13.32c0,5.52-1.93,9.62-5.8,12.31-3.86,2.69-8.92,4.03-15.16,4.03-6.67,0-11.9-1.68-15.7-5.04-3.79-3.36-5.69-8.3-5.69-14.83s1.9-11.47,5.69-14.83c3.79-3.36,9.02-5.04,15.7-5.04,6.24,0,11.29,1.33,15.16,4Z"/>
  <path class="cls-1" d="M250.02,16.31c3.53,1.99,5.29,5.08,5.29,9.25h-13.32c0-1.39-.62-2.38-1.87-2.95-.86-.48-1.94-.72-3.24-.72-3.46,0-5.18.82-5.18,2.45,0,.91.6,1.56,1.8,1.94,1.2.38,3.17.79,5.9,1.22,3.36.48,6.17,1.04,8.42,1.69,2.26.65,4.22,1.8,5.9,3.46,1.68,1.66,2.52,3.97,2.52,6.95,0,4.85-1.81,8.3-5.44,10.37-3.62,2.06-8.37,3.1-14.22,3.1-3.36,0-6.53-.47-9.5-1.4-2.98-.94-5.4-2.39-7.27-4.36-1.87-1.97-2.81-4.46-2.81-7.49h13.32v.29c.05,1.63.73,2.77,2.05,3.42,1.32.65,2.72.97,4.21.97,3.98,0,5.98-.94,5.98-2.81,0-.96-.62-1.66-1.87-2.09-1.25-.43-3.29-.89-6.12-1.37-3.41-.58-6.2-1.2-8.39-1.87-2.19-.67-4.09-1.81-5.72-3.42-1.63-1.61-2.45-3.85-2.45-6.73,0-4.66,1.76-7.97,5.29-9.94,3.53-1.97,8.12-2.95,13.79-2.95,5.09,0,9.4,1,12.92,2.99Z"/>
  <path class="cls-1" d="M263.08,52.2v-14.33h15.26v14.33h-15.26Z"/>
</svg>